<mxfile host="app.diagrams.net" modified="2022-07-07T07:56:30.632Z" agent="5.0 (Macintosh; Intel Mac OS X 10_15_7) AppleWebKit/537.36 (KHTML, like Gecko) Chrome/103.0.0.0 Safari/537.36" etag="Zgbl54JsgzJqaApAUEOt" version="20.0.4" type="github">
  <diagram id="aaMPr5jAtVa4Pp0pItJO" name="Page-1">
    <mxGraphModel dx="1426" dy="801" grid="1" gridSize="10" guides="1" tooltips="1" connect="1" arrows="1" fold="1" page="1" pageScale="1" pageWidth="1169" pageHeight="1654" math="0" shadow="0">
      <root>
        <mxCell id="0" />
        <mxCell id="1" parent="0" />
        <mxCell id="eDVEf8kGDEXQK2gPYz-t-14" style="rounded=0;orthogonalLoop=1;jettySize=auto;html=1;exitX=1;exitY=0.3333333333333333;exitDx=0;exitDy=0;exitPerimeter=0;entryX=0;entryY=0.5;entryDx=0;entryDy=0;" edge="1" parent="1" source="eDVEf8kGDEXQK2gPYz-t-1" target="eDVEf8kGDEXQK2gPYz-t-3">
          <mxGeometry relative="1" as="geometry" />
        </mxCell>
        <mxCell id="eDVEf8kGDEXQK2gPYz-t-16" style="edgeStyle=none;rounded=0;orthogonalLoop=1;jettySize=auto;html=1;entryX=0;entryY=0.5;entryDx=0;entryDy=0;" edge="1" parent="1" target="eDVEf8kGDEXQK2gPYz-t-7">
          <mxGeometry relative="1" as="geometry">
            <mxPoint x="50" y="210" as="sourcePoint" />
          </mxGeometry>
        </mxCell>
        <mxCell id="eDVEf8kGDEXQK2gPYz-t-17" style="edgeStyle=none;rounded=0;orthogonalLoop=1;jettySize=auto;html=1;exitX=1;exitY=0.3333333333333333;exitDx=0;exitDy=0;exitPerimeter=0;entryX=0;entryY=0.5;entryDx=0;entryDy=0;" edge="1" parent="1" source="eDVEf8kGDEXQK2gPYz-t-1" target="eDVEf8kGDEXQK2gPYz-t-5">
          <mxGeometry relative="1" as="geometry" />
        </mxCell>
        <mxCell id="eDVEf8kGDEXQK2gPYz-t-18" style="edgeStyle=none;rounded=0;orthogonalLoop=1;jettySize=auto;html=1;exitX=1;exitY=0.3333333333333333;exitDx=0;exitDy=0;exitPerimeter=0;entryX=0;entryY=0.5;entryDx=0;entryDy=0;" edge="1" parent="1" source="eDVEf8kGDEXQK2gPYz-t-1" target="eDVEf8kGDEXQK2gPYz-t-6">
          <mxGeometry relative="1" as="geometry" />
        </mxCell>
        <mxCell id="eDVEf8kGDEXQK2gPYz-t-1" value="사용자" style="shape=umlActor;verticalLabelPosition=bottom;verticalAlign=top;html=1;" vertex="1" parent="1">
          <mxGeometry x="20" y="190" width="30" height="60" as="geometry" />
        </mxCell>
        <mxCell id="eDVEf8kGDEXQK2gPYz-t-2" value="게시판 서비스" style="shape=umlFrame;whiteSpace=wrap;html=1;width=90;height=30;" vertex="1" parent="1">
          <mxGeometry x="80" y="40" width="590" height="560" as="geometry" />
        </mxCell>
        <mxCell id="eDVEf8kGDEXQK2gPYz-t-3" value="회원 가입 기능" style="rounded=1;whiteSpace=wrap;html=1;arcSize=40;fontColor=#000000;fillColor=#ffffc0;strokeColor=#ff0000;" vertex="1" parent="1">
          <mxGeometry x="120" y="210" width="120" height="40" as="geometry" />
        </mxCell>
        <mxCell id="eDVEf8kGDEXQK2gPYz-t-25" style="rounded=0;orthogonalLoop=1;jettySize=auto;html=1;exitX=1;exitY=0.5;exitDx=0;exitDy=0;entryX=0.5;entryY=1;entryDx=0;entryDy=0;dashed=1;" edge="1" parent="1" source="eDVEf8kGDEXQK2gPYz-t-5" target="eDVEf8kGDEXQK2gPYz-t-7">
          <mxGeometry relative="1" as="geometry" />
        </mxCell>
        <mxCell id="eDVEf8kGDEXQK2gPYz-t-5" value="게시판 조회" style="rounded=1;whiteSpace=wrap;html=1;arcSize=40;fontColor=#000000;fillColor=#ffffc0;strokeColor=#ff0000;" vertex="1" parent="1">
          <mxGeometry x="120" y="300" width="120" height="40" as="geometry" />
        </mxCell>
        <mxCell id="eDVEf8kGDEXQK2gPYz-t-26" style="edgeStyle=none;rounded=0;orthogonalLoop=1;jettySize=auto;html=1;exitX=1;exitY=0.5;exitDx=0;exitDy=0;dashed=1;" edge="1" parent="1" source="eDVEf8kGDEXQK2gPYz-t-6">
          <mxGeometry relative="1" as="geometry">
            <mxPoint x="300" y="160" as="targetPoint" />
          </mxGeometry>
        </mxCell>
        <mxCell id="eDVEf8kGDEXQK2gPYz-t-35" style="edgeStyle=none;rounded=0;orthogonalLoop=1;jettySize=auto;html=1;exitX=1;exitY=0.5;exitDx=0;exitDy=0;entryX=0;entryY=0.5;entryDx=0;entryDy=0;endArrow=none;endFill=0;" edge="1" parent="1" source="eDVEf8kGDEXQK2gPYz-t-6" target="eDVEf8kGDEXQK2gPYz-t-32">
          <mxGeometry relative="1" as="geometry">
            <Array as="points">
              <mxPoint x="630" y="380" />
            </Array>
          </mxGeometry>
        </mxCell>
        <mxCell id="eDVEf8kGDEXQK2gPYz-t-6" value="게시글 조회" style="rounded=1;whiteSpace=wrap;html=1;arcSize=40;fontColor=#000000;fillColor=#ffffc0;strokeColor=#ff0000;" vertex="1" parent="1">
          <mxGeometry x="120" y="410" width="120" height="40" as="geometry" />
        </mxCell>
        <mxCell id="eDVEf8kGDEXQK2gPYz-t-19" value="&amp;lt;&amp;lt;include&amp;gt;&amp;gt;" style="edgeStyle=none;rounded=0;orthogonalLoop=1;jettySize=auto;html=1;exitX=1;exitY=0.5;exitDx=0;exitDy=0;entryX=0;entryY=0.5;entryDx=0;entryDy=0;dashed=1;" edge="1" parent="1" source="eDVEf8kGDEXQK2gPYz-t-7" target="eDVEf8kGDEXQK2gPYz-t-8">
          <mxGeometry relative="1" as="geometry" />
        </mxCell>
        <mxCell id="eDVEf8kGDEXQK2gPYz-t-7" value="로그인 기능" style="rounded=1;whiteSpace=wrap;html=1;arcSize=40;fontColor=#000000;fillColor=#ffffc0;strokeColor=#ff0000;" vertex="1" parent="1">
          <mxGeometry x="240" y="120" width="120" height="40" as="geometry" />
        </mxCell>
        <mxCell id="eDVEf8kGDEXQK2gPYz-t-20" style="edgeStyle=none;rounded=0;orthogonalLoop=1;jettySize=auto;html=1;exitX=1;exitY=0.5;exitDx=0;exitDy=0;entryX=0;entryY=0.5;entryDx=0;entryDy=0;dashed=1;" edge="1" parent="1" source="eDVEf8kGDEXQK2gPYz-t-7" target="eDVEf8kGDEXQK2gPYz-t-9">
          <mxGeometry relative="1" as="geometry" />
        </mxCell>
        <mxCell id="eDVEf8kGDEXQK2gPYz-t-24" value="&amp;lt;&amp;lt;extend&amp;gt;&amp;gt;" style="edgeLabel;html=1;align=center;verticalAlign=middle;resizable=0;points=[];" vertex="1" connectable="0" parent="eDVEf8kGDEXQK2gPYz-t-20">
          <mxGeometry x="0.1294" y="2" relative="1" as="geometry">
            <mxPoint as="offset" />
          </mxGeometry>
        </mxCell>
        <mxCell id="eDVEf8kGDEXQK2gPYz-t-34" style="edgeStyle=none;rounded=0;orthogonalLoop=1;jettySize=auto;html=1;exitX=1;exitY=0.5;exitDx=0;exitDy=0;entryX=0;entryY=0.5;entryDx=0;entryDy=0;endArrow=none;endFill=0;" edge="1" parent="1" source="eDVEf8kGDEXQK2gPYz-t-8" target="eDVEf8kGDEXQK2gPYz-t-32">
          <mxGeometry relative="1" as="geometry" />
        </mxCell>
        <mxCell id="eDVEf8kGDEXQK2gPYz-t-8" value="인증 절차" style="rounded=1;whiteSpace=wrap;html=1;arcSize=40;fontColor=#000000;fillColor=#ffffc0;strokeColor=#ff0000;" vertex="1" parent="1">
          <mxGeometry x="510" y="120" width="120" height="40" as="geometry" />
        </mxCell>
        <mxCell id="eDVEf8kGDEXQK2gPYz-t-21" style="edgeStyle=orthogonalEdgeStyle;rounded=0;orthogonalLoop=1;jettySize=auto;html=1;exitX=0.5;exitY=0;exitDx=0;exitDy=0;entryX=0.5;entryY=0;entryDx=0;entryDy=0;" edge="1" parent="1" source="eDVEf8kGDEXQK2gPYz-t-9" target="eDVEf8kGDEXQK2gPYz-t-7">
          <mxGeometry relative="1" as="geometry">
            <Array as="points">
              <mxPoint x="570" y="80" />
              <mxPoint x="300" y="80" />
            </Array>
          </mxGeometry>
        </mxCell>
        <mxCell id="eDVEf8kGDEXQK2gPYz-t-9" value="로그인 실패" style="rounded=1;whiteSpace=wrap;html=1;arcSize=40;fontColor=#000000;fillColor=#ffffc0;strokeColor=#ff0000;" vertex="1" parent="1">
          <mxGeometry x="510" y="180" width="120" height="40" as="geometry" />
        </mxCell>
        <mxCell id="eDVEf8kGDEXQK2gPYz-t-27" style="edgeStyle=none;rounded=0;orthogonalLoop=1;jettySize=auto;html=1;exitX=0;exitY=0.5;exitDx=0;exitDy=0;dashed=1;" edge="1" parent="1" source="eDVEf8kGDEXQK2gPYz-t-10">
          <mxGeometry relative="1" as="geometry">
            <mxPoint x="240" y="320" as="targetPoint" />
          </mxGeometry>
        </mxCell>
        <mxCell id="eDVEf8kGDEXQK2gPYz-t-10" value="게시글 정렬&amp;nbsp; 기능" style="rounded=1;whiteSpace=wrap;html=1;arcSize=40;fontColor=#000000;fillColor=#ffffc0;strokeColor=#ff0000;" vertex="1" parent="1">
          <mxGeometry x="510" y="240" width="120" height="40" as="geometry" />
        </mxCell>
        <mxCell id="eDVEf8kGDEXQK2gPYz-t-29" style="edgeStyle=none;rounded=0;orthogonalLoop=1;jettySize=auto;html=1;exitX=0;exitY=0.5;exitDx=0;exitDy=0;entryX=1;entryY=0.5;entryDx=0;entryDy=0;dashed=1;" edge="1" parent="1" source="eDVEf8kGDEXQK2gPYz-t-11" target="eDVEf8kGDEXQK2gPYz-t-5">
          <mxGeometry relative="1" as="geometry" />
        </mxCell>
        <mxCell id="eDVEf8kGDEXQK2gPYz-t-11" value="게시글 검색 기능" style="rounded=1;whiteSpace=wrap;html=1;arcSize=40;fontColor=#000000;fillColor=#ffffc0;strokeColor=#ff0000;" vertex="1" parent="1">
          <mxGeometry x="510" y="320" width="120" height="40" as="geometry" />
        </mxCell>
        <mxCell id="eDVEf8kGDEXQK2gPYz-t-30" style="edgeStyle=none;rounded=0;orthogonalLoop=1;jettySize=auto;html=1;exitX=0;exitY=0.5;exitDx=0;exitDy=0;entryX=1;entryY=0.5;entryDx=0;entryDy=0;dashed=1;" edge="1" parent="1" source="eDVEf8kGDEXQK2gPYz-t-12" target="eDVEf8kGDEXQK2gPYz-t-6">
          <mxGeometry relative="1" as="geometry" />
        </mxCell>
        <mxCell id="eDVEf8kGDEXQK2gPYz-t-36" style="edgeStyle=none;rounded=0;orthogonalLoop=1;jettySize=auto;html=1;exitX=1;exitY=0.5;exitDx=0;exitDy=0;entryX=0;entryY=0.5;entryDx=0;entryDy=0;endArrow=none;endFill=0;" edge="1" parent="1" source="eDVEf8kGDEXQK2gPYz-t-12" target="eDVEf8kGDEXQK2gPYz-t-32">
          <mxGeometry relative="1" as="geometry" />
        </mxCell>
        <mxCell id="eDVEf8kGDEXQK2gPYz-t-12" value="게시글 쓰기, 수정, 삭제" style="rounded=1;whiteSpace=wrap;html=1;arcSize=40;fontColor=#000000;fillColor=#ffffc0;strokeColor=#ff0000;" vertex="1" parent="1">
          <mxGeometry x="510" y="410" width="120" height="40" as="geometry" />
        </mxCell>
        <mxCell id="eDVEf8kGDEXQK2gPYz-t-31" style="edgeStyle=none;rounded=0;orthogonalLoop=1;jettySize=auto;html=1;exitX=0;exitY=0.5;exitDx=0;exitDy=0;dashed=1;" edge="1" parent="1" source="eDVEf8kGDEXQK2gPYz-t-13">
          <mxGeometry relative="1" as="geometry">
            <mxPoint x="240" y="430" as="targetPoint" />
          </mxGeometry>
        </mxCell>
        <mxCell id="eDVEf8kGDEXQK2gPYz-t-13" value="댓글 쓰기, 수정&lt;br&gt;삭제" style="rounded=1;whiteSpace=wrap;html=1;arcSize=40;fontColor=#000000;fillColor=#ffffc0;strokeColor=#ff0000;" vertex="1" parent="1">
          <mxGeometry x="510" y="480" width="120" height="40" as="geometry" />
        </mxCell>
        <mxCell id="eDVEf8kGDEXQK2gPYz-t-32" value="Data Base" style="html=1;dropTarget=0;" vertex="1" parent="1">
          <mxGeometry x="760" y="120" width="180" height="90" as="geometry" />
        </mxCell>
        <mxCell id="eDVEf8kGDEXQK2gPYz-t-33" value="" style="shape=module;jettyWidth=8;jettyHeight=4;" vertex="1" parent="eDVEf8kGDEXQK2gPYz-t-32">
          <mxGeometry x="1" width="20" height="20" relative="1" as="geometry">
            <mxPoint x="-27" y="7" as="offset" />
          </mxGeometry>
        </mxCell>
      </root>
    </mxGraphModel>
  </diagram>
</mxfile>
